<svg width="150" height="142" viewBox="0 0 150 142" fill="none" xmlns="http://www.w3.org/2000/svg">
<g clip-path="url(#clip0_1925_1462)">
<path d="M149.382 8.64944C149.82 8.44886 150.209 9.00966 149.873 9.35351C148.232 11.0318 146.345 12.5996 144.245 14.0241C137.896 18.3427 129.602 21.3841 120.339 22.3338C119.066 22.4648 117.801 22.5549 116.553 22.5999C115.161 22.6531 113.777 22.6531 112.418 22.6081C105.128 22.3584 98.4145 20.7087 92.8965 17.9948C92.7737 17.9334 92.6305 17.9334 92.5077 17.9948C91.9387 18.2895 91.3779 18.5842 90.8212 18.8912C90.727 18.9444 90.6206 18.9567 90.5182 18.9322C87.1043 18.1135 83.4489 17.6304 79.642 17.5281C77.1982 17.4626 74.6889 17.5568 72.1469 17.8146C60.2186 19.0386 49.899 23.7338 43.2636 30.1523H43.2554C40.2958 31.8511 37.5 33.775 34.9048 35.9036C27.3974 42.0601 21.5315 49.9359 17.9252 58.7941C17.917 58.7982 17.9129 58.8023 17.917 58.8063C14.5072 65.9903 12.3622 74.4146 11.8178 83.4775C11.5681 87.6037 11.6499 91.865 12.0961 96.1999C13.1604 106.569 16.1691 116.082 20.5368 124.08C20.7783 124.527 20.1929 124.956 19.8409 124.592C9.44767 113.769 2.20637 98.5373 0.421635 81.1442C-1.75198 59.9812 4.63788 40.2958 16.3246 26.943C26.3045 13.1645 42.5759 3.36481 61.7086 1.39995C62.7197 1.29762 63.7308 1.21575 64.7337 1.15844C64.7337 1.15844 64.7337 1.15435 64.7419 1.15844C66.5593 0.790032 68.4259 0.503491 70.3376 0.307006C73.0352 0.0286523 75.6795 -0.0573099 78.2584 0.0327458C85.5201 0.278352 92.217 1.91982 97.7227 4.62149C97.7227 4.62149 97.7227 4.62149 97.7268 4.62149C97.7268 4.62149 97.7268 4.62149 97.7309 4.62149C97.7309 4.62149 97.7309 4.62149 97.735 4.62149C97.735 4.62149 97.735 4.62149 97.7391 4.62149C97.7391 4.62149 97.7391 4.62149 97.7432 4.62149C99.7121 6.28343 102 7.75297 104.538 8.98919H104.542C106.696 10.0535 109.037 10.9459 111.518 11.654C117.629 13.4101 124.612 14.0528 131.919 13.3037C134.072 13.0826 136.176 12.747 138.207 12.3131C142.206 11.4534 145.956 10.2008 149.361 8.62897L149.382 8.64944Z" fill="#2E302D"/>
<path d="M121.894 121.559C122.3 121.501 122.545 121.993 122.267 122.292C120.916 123.732 119.488 125.108 117.985 126.41C110.388 133.008 100.993 137.757 90.5878 139.91C87.7715 140.491 84.8816 140.884 81.9302 141.068C81.394 141.105 80.8536 141.13 80.3092 141.15C79.8057 141.17 79.2981 141.183 78.7864 141.191C78.504 141.195 78.2175 141.195 77.935 141.195C51.9294 141.195 29.8166 125.272 21.6993 103.073C21.683 103.032 21.6748 102.987 21.6707 102.946C21.552 101.186 21.4947 99.4051 21.4947 97.5999C21.4947 95.9461 21.5438 94.3088 21.642 92.6878C22.8496 72.1796 31.5686 54.6965 43.8858 45.7892C44.7208 45.1834 45.5723 44.6185 46.4401 44.0945C46.6284 43.9799 46.8208 43.8653 47.0132 43.7589C47.7909 43.3086 48.5769 42.8911 49.3751 42.5063C49.764 42.3221 50.1487 42.7519 49.9318 43.1244C49.4365 43.9758 48.9862 44.8764 48.5769 45.822C46.8985 49.7066 45.9611 54.3322 45.8097 59.4081C45.5641 67.6277 47.3816 77.0181 51.43 86.3102C59.8297 105.574 75.086 118.1 87.8329 117.302C88.2791 117.273 88.4019 116.683 88.0049 116.479C87.9762 116.462 87.9476 116.45 87.9148 116.434C87.9107 116.434 87.9066 116.43 87.9066 116.43C76.8953 113.417 65.2945 102.107 58.3643 86.2078C55.6503 79.9858 53.9393 73.7188 53.182 67.7874C52.3838 61.5735 52.6294 55.7322 53.8533 50.6932C54.9299 46.2968 56.7515 42.5145 59.2812 39.645C59.621 39.2561 59.9771 38.8877 60.3414 38.5356C61.8109 37.1193 63.4852 35.9772 65.36 35.1626C65.7243 35.003 66.0927 34.8597 66.4652 34.7247C66.9155 34.565 66.809 33.9101 66.3342 33.8814C65.143 33.82 63.9682 33.865 62.8138 34.0288C62.3103 34.0984 62.1016 33.4148 62.5641 33.2019C69.2364 30.1359 76.5965 28.2202 84.3658 27.729C85.6839 27.643 87.0183 27.6021 88.361 27.6021C90.6492 27.6021 92.9047 27.7249 95.1234 27.9664C95.3731 27.9909 95.6269 28.0196 95.8766 28.0523C96.2982 28.1015 96.4046 28.6664 96.0321 28.871C96.0321 28.871 96.0239 28.8751 96.0198 28.8792C95.545 29.133 95.0742 29.395 94.6076 29.6652C90.8539 31.8224 87.3909 34.3399 84.2798 37.1602C83.3097 38.0403 82.3723 38.9491 81.4758 39.8865C80.2642 41.1514 79.118 42.4653 78.0455 43.8244C77.5339 44.467 77.0426 45.1179 76.5678 45.781C73.8743 49.5265 71.7007 53.5913 70.137 57.8976C68.2786 62.9939 67.2798 68.43 67.2798 74.0667C67.2798 74.2959 67.2798 74.5252 67.2839 74.7503C67.3903 81.9998 69.1464 88.8972 72.2451 95.1684C76.4737 103.74 83.2074 111.137 91.6317 116.643C91.9141 116.827 92.1965 117.007 92.479 117.187C92.4626 117.195 92.4463 117.199 92.4299 117.203C92.4544 117.207 92.479 117.207 92.5077 117.207C92.9129 117.461 93.3222 117.711 93.7316 117.957C95.062 118.751 96.4292 119.496 97.8332 120.196C97.8619 120.208 97.8905 120.22 97.9192 120.228C98.6233 120.421 99.3437 120.593 100.072 120.752C100.85 120.924 101.636 121.084 102.438 121.223C105.877 121.837 109.491 122.165 113.229 122.165C116.196 122.165 119.095 121.96 121.886 121.563L121.894 121.559Z" fill="#2E302D"/>
</g>
<defs>
<clipPath id="clip0_1925_1462">
<rect width="150" height="141.195" fill="white"/>
</clipPath>
</defs>
</svg>
