<svg width="48" height="46" viewBox="0 0 48 46" fill="none" xmlns="http://www.w3.org/2000/svg">
<g clip-path="url(#clip0_1918_1462)">
<path d="M47.8024 2.76782C47.9426 2.70364 48.067 2.8831 47.9596 2.99313C47.4343 3.53019 46.8305 4.03188 46.1585 4.48772C44.1268 5.86967 41.473 6.84293 38.5087 7.14682C38.1013 7.18874 37.6965 7.21756 37.297 7.23197C36.8516 7.24899 36.4089 7.24899 35.974 7.23459C33.6411 7.15468 31.4928 6.62679 29.7271 5.75833C29.6878 5.73868 29.6419 5.73868 29.6026 5.75833C29.4206 5.85264 29.2411 5.94695 29.063 6.0452C29.0328 6.06223 28.9988 6.06615 28.966 6.0583C27.8736 5.79632 26.7038 5.64175 25.4856 5.609C24.7036 5.58804 23.9006 5.61817 23.0872 5.70069C19.2701 6.09235 15.9679 7.59481 13.8445 9.64873H13.8419C12.8949 10.1923 12.0002 10.808 11.1697 11.4891C8.76736 13.4592 6.89028 15.9795 5.73625 18.8141C5.73363 18.8154 5.73232 18.8167 5.73363 18.818C4.64249 21.1169 3.9561 23.8127 3.78188 26.7128C3.70198 28.0332 3.72818 29.3968 3.87095 30.784C4.21153 34.102 5.17431 37.1462 6.57197 39.7057C6.64925 39.8485 6.46194 39.986 6.34929 39.8695C3.02345 36.4061 0.706235 31.5319 0.135118 25.9662C-0.560439 19.194 1.48432 12.8947 5.22408 8.62177C8.41762 4.21265 13.6245 1.07674 19.7469 0.44799C20.0705 0.415243 20.394 0.389045 20.715 0.370706C20.715 0.370706 20.715 0.369396 20.7176 0.370706C21.2992 0.252815 21.8965 0.161122 22.5082 0.0982469C23.3714 0.00917363 24.2176 -0.0183343 25.0429 0.0104835C27.3666 0.0890776 29.5096 0.614348 31.2715 1.47888C31.2715 1.47888 31.2715 1.47888 31.2728 1.47888C31.2728 1.47888 31.2728 1.47888 31.2741 1.47888C31.2741 1.47888 31.2741 1.47888 31.2754 1.47888C31.2754 1.47888 31.2754 1.47888 31.2767 1.47888C31.2767 1.47888 31.2767 1.47888 31.278 1.47888C31.9081 2.0107 32.6403 2.48096 33.4524 2.87655H33.4537C34.1428 3.21712 34.892 3.50268 35.6858 3.72929C37.6415 4.29124 39.8762 4.49689 42.2144 4.25718C42.9034 4.18645 43.5767 4.07904 44.2264 3.94019C45.5061 3.66511 46.706 3.26428 47.7959 2.76128L47.8024 2.76782Z" fill="#007EA7"/>
<path d="M39.0064 38.8989C39.136 38.8806 39.2146 39.0378 39.1256 39.1334C38.6933 39.5945 38.2361 40.0346 37.7554 40.4511C35.3242 42.5627 32.318 44.0822 28.9882 44.7712C28.087 44.9572 27.1622 45.083 26.2178 45.1419C26.0462 45.1537 25.8733 45.1615 25.6991 45.1681C25.538 45.1746 25.3755 45.1786 25.2118 45.1812C25.1214 45.1825 25.0297 45.1825 24.9393 45.1825C16.6175 45.1825 9.54145 40.087 6.94391 32.9834C6.93867 32.9703 6.93605 32.9559 6.93474 32.9428C6.89676 32.3795 6.87842 31.8097 6.87842 31.2321C6.87842 30.7029 6.89414 30.1789 6.92557 29.6602C7.312 23.0976 10.1021 17.503 14.0436 14.6527C14.3108 14.4588 14.5833 14.278 14.861 14.1104C14.9212 14.0737 14.9828 14.037 15.0443 14.0029C15.2932 13.8589 15.5447 13.7252 15.8002 13.6021C15.9246 13.5432 16.0477 13.6807 15.9783 13.7999C15.8198 14.0724 15.6757 14.3605 15.5447 14.6631C15.0077 15.9062 14.7077 17.3864 14.6592 19.0107C14.5806 21.641 15.1622 24.6459 16.4577 27.6194C19.1456 33.7838 24.0276 37.792 28.1067 37.5366C28.2494 37.5274 28.2887 37.3388 28.1617 37.2733C28.1525 37.2681 28.1433 37.2642 28.1329 37.2589C28.1316 37.2589 28.1302 37.2576 28.1302 37.2576C24.6066 36.2935 20.8944 32.6743 18.6767 27.5866C17.8082 25.5956 17.2607 23.5901 17.0184 21.6921C16.7629 19.7036 16.8415 17.8344 17.2332 16.2219C17.5777 14.8151 18.1606 13.6047 18.9701 12.6865C19.0788 12.5621 19.1928 12.4442 19.3094 12.3315C19.7796 11.8783 20.3154 11.5128 20.9153 11.2522C21.0319 11.2011 21.1498 11.1552 21.269 11.112C21.4131 11.0609 21.379 10.8513 21.2271 10.8422C20.8459 10.8225 20.4699 10.8369 20.1006 10.8893C19.9394 10.9116 19.8726 10.6928 20.0207 10.6247C22.1558 9.64359 24.511 9.03056 26.9972 8.87337C27.419 8.84586 27.846 8.83276 28.2756 8.83276C29.0079 8.83276 29.7296 8.87206 30.4396 8.94934C30.5195 8.9572 30.6007 8.96637 30.6806 8.97685C30.8155 8.99257 30.8496 9.17334 30.7304 9.23883C30.7304 9.23883 30.7278 9.24014 30.7265 9.24145C30.5745 9.32267 30.4239 9.4065 30.2746 9.49295C29.0734 10.1833 27.9652 10.9889 26.9697 11.8914C26.6592 12.173 26.3593 12.4638 26.0724 12.7638C25.6847 13.1685 25.3179 13.589 24.9747 14.0239C24.811 14.2296 24.6538 14.4378 24.5018 14.65C23.6399 15.8486 22.9443 17.1493 22.444 18.5273C21.8493 20.1582 21.5297 21.8977 21.5297 23.7014C21.5297 23.7748 21.5297 23.8482 21.531 23.9202C21.565 26.24 22.127 28.4472 23.1186 30.454C24.4717 33.1969 26.6265 35.5639 29.3223 37.3257C29.4126 37.3847 29.503 37.4423 29.5934 37.4999C29.5882 37.5026 29.5829 37.5039 29.5777 37.5052C29.5855 37.5065 29.5934 37.5065 29.6026 37.5065C29.7323 37.5877 29.8632 37.6676 29.9942 37.7462C30.42 38.0003 30.8575 38.2387 31.3068 38.4627C31.3159 38.4666 31.3251 38.4706 31.3343 38.4732C31.5596 38.5348 31.7901 38.5898 32.0233 38.6409C32.2722 38.6959 32.5237 38.747 32.7804 38.7915C33.8807 38.988 35.0373 39.0928 36.2333 39.0928C37.183 39.0928 38.1104 39.0273 39.0037 38.9002L39.0064 38.8989Z" fill="#007EA7"/>
</g>
<defs>
<clipPath id="clip0_1918_1462">
<rect width="48" height="45.1824" fill="white"/>
</clipPath>
</defs>
</svg>
