<svg width="48" height="46" viewBox="0 0 48 46" fill="none" xmlns="http://www.w3.org/2000/svg">
<g clip-path="url(#clip0_1953_1462)">
<path d="M47.8022 2.76782C47.9423 2.70364 48.0668 2.8831 47.9594 2.99313C47.4341 3.53019 46.8302 4.03188 46.1583 4.48772C44.1266 5.86967 41.4728 6.84293 38.5084 7.14682C38.1011 7.18874 37.6963 7.21756 37.2968 7.23197C36.8514 7.24899 36.4087 7.24899 35.9738 7.23459C33.6409 7.15468 31.4926 6.62679 29.7269 5.75833C29.6876 5.73868 29.6417 5.73868 29.6024 5.75833C29.4204 5.85264 29.2409 5.94695 29.0627 6.0452C29.0326 6.06223 28.9986 6.06615 28.9658 6.0583C27.8734 5.79632 26.7036 5.64175 25.4854 5.609C24.7034 5.58804 23.9004 5.61817 23.087 5.70069C19.2699 6.09235 15.9677 7.59481 13.8443 9.64873H13.8417C12.8946 10.1923 12 10.808 11.1695 11.4891C8.76715 13.4592 6.89006 15.9795 5.73604 18.8141C5.73342 18.8154 5.73211 18.8167 5.73342 18.818C4.64227 21.1169 3.95588 23.8127 3.78167 26.7128C3.70176 28.0332 3.72796 29.3968 3.87074 30.784C4.21132 34.102 5.17409 37.1462 6.57176 39.7057C6.64904 39.8485 6.46172 39.986 6.34907 39.8695C3.02324 36.4061 0.706021 31.5319 0.134905 25.9662C-0.560652 19.194 1.4841 12.8947 5.22387 8.62177C8.41741 4.21265 13.6243 1.07674 19.7467 0.44799C20.0703 0.415243 20.3938 0.389045 20.7148 0.370706C20.7148 0.370706 20.7148 0.369396 20.7174 0.370706C21.299 0.252815 21.8963 0.161122 22.508 0.0982469C23.3712 0.00917363 24.2174 -0.0183343 25.0427 0.0104835C27.3664 0.0890776 29.5094 0.614348 31.2712 1.47888C31.2712 1.47888 31.2712 1.47888 31.2726 1.47888C31.2726 1.47888 31.2726 1.47888 31.2739 1.47888C31.2739 1.47888 31.2739 1.47888 31.2752 1.47888C31.2752 1.47888 31.2752 1.47888 31.2765 1.47888C31.2765 1.47888 31.2765 1.47888 31.2778 1.47888C31.9079 2.0107 32.6401 2.48096 33.4522 2.87655H33.4535C34.1425 3.21712 34.8918 3.50268 35.6856 3.72929C37.6413 4.29124 39.876 4.49689 42.2142 4.25718C42.9032 4.18645 43.5765 4.07904 44.2262 3.94019C45.5059 3.66511 46.7058 3.26428 47.7956 2.76128L47.8022 2.76782Z" fill="#DE3434"/>
<path d="M39.0062 38.8989C39.1359 38.8806 39.2145 39.0378 39.1254 39.1334C38.6932 39.5945 38.236 40.0346 37.7553 40.4511C35.3241 42.5627 32.3179 44.0822 28.9881 44.7712C28.0869 44.9572 27.1621 45.083 26.2177 45.1419C26.0461 45.1537 25.8732 45.1615 25.6989 45.1681C25.5378 45.1746 25.3754 45.1786 25.2117 45.1812C25.1213 45.1825 25.0296 45.1825 24.9392 45.1825C16.6174 45.1825 9.54132 40.087 6.94379 32.9834C6.93855 32.9703 6.93593 32.9559 6.93462 32.9428C6.89663 32.3795 6.8783 31.8097 6.8783 31.2321C6.8783 30.7029 6.89401 30.1789 6.92545 29.6602C7.31187 23.0976 10.102 17.503 14.0435 14.6527C14.3107 14.4588 14.5831 14.278 14.8608 14.1104C14.9211 14.0737 14.9827 14.037 15.0442 14.0029C15.2931 13.8589 15.5446 13.7252 15.8 13.6021C15.9245 13.5432 16.0476 13.6807 15.9782 13.7999C15.8197 14.0724 15.6756 14.3605 15.5446 14.6631C15.0075 15.9062 14.7076 17.3864 14.6591 19.0107C14.5805 21.641 15.1621 24.6459 16.4576 27.6194C19.1455 33.7838 24.0275 37.792 28.1065 37.5366C28.2493 37.5274 28.2886 37.3388 28.1616 37.2733C28.1524 37.2681 28.1432 37.2642 28.1327 37.2589C28.1314 37.2589 28.1301 37.2576 28.1301 37.2576C24.6065 36.2935 20.8942 32.6743 18.6766 27.5866C17.8081 25.5956 17.2606 23.5901 17.0182 21.6921C16.7628 19.7036 16.8414 17.8344 17.2331 16.2219C17.5776 14.8151 18.1605 13.6047 18.97 12.6865C19.0787 12.5621 19.1927 12.4442 19.3093 12.3315C19.7795 11.8783 20.3153 11.5128 20.9152 11.2522C21.0318 11.2011 21.1497 11.1552 21.2689 11.112C21.413 11.0609 21.3789 10.8513 21.2269 10.8422C20.8458 10.8225 20.4698 10.8369 20.1004 10.8893C19.9393 10.9116 19.8725 10.6928 20.0205 10.6247C22.1557 9.64359 24.5109 9.03056 26.9971 8.87337C27.4188 8.84586 27.8459 8.83276 28.2755 8.83276C29.0078 8.83276 29.7295 8.87206 30.4395 8.94934C30.5194 8.9572 30.6006 8.96637 30.6805 8.97685C30.8154 8.99257 30.8495 9.17334 30.7303 9.23883C30.7303 9.23883 30.7277 9.24014 30.7263 9.24145C30.5744 9.32267 30.4238 9.4065 30.2744 9.49295C29.0733 10.1833 27.9651 10.9889 26.9696 11.8914C26.6591 12.173 26.3591 12.4638 26.0723 12.7638C25.6845 13.1685 25.3178 13.589 24.9746 14.0239C24.8108 14.2296 24.6536 14.4378 24.5017 14.65C23.6398 15.8486 22.9442 17.1493 22.4438 18.5273C21.8491 20.1582 21.5295 21.8977 21.5295 23.7014C21.5295 23.7748 21.5295 23.8482 21.5308 23.9202C21.5649 26.24 22.1268 28.4472 23.1184 30.454C24.4716 33.1969 26.6264 35.5639 29.3221 37.3257C29.4125 37.3847 29.5029 37.4423 29.5933 37.4999C29.588 37.5026 29.5828 37.5039 29.5776 37.5052C29.5854 37.5065 29.5933 37.5065 29.6025 37.5065C29.7321 37.5877 29.8631 37.6676 29.9941 37.7462C30.4198 38.0003 30.8573 38.2387 31.3066 38.4627C31.3158 38.4666 31.325 38.4706 31.3341 38.4732C31.5594 38.5348 31.79 38.5898 32.0231 38.6409C32.272 38.6959 32.5235 38.747 32.7803 38.7915C33.8806 38.988 35.0372 39.0928 36.2332 39.0928C37.1828 39.0928 38.1103 39.0273 39.0036 38.9002L39.0062 38.8989Z" fill="#DE3434"/>
</g>
<defs>
<clipPath id="clip0_1953_1462">
<rect width="48" height="45.1824" fill="white"/>
</clipPath>
</defs>
</svg>
